# xmcd
#
# Track frame offsets:
#	150
#	11053
#	20601
#	33678
#	42696
#	54337
#	65328
#	75908
#	85440
#	98164
#	110119
#	121379
#	135447
#	147994
#	156811
#
# Disc length: 2233 seconds
#
# Revision: 0
# Processed by: cddbd v1.5.2PL0 Copyright (c) Steve Scherf et al.
# Submitted via: EasyCDDAExtractor 12.0.1.1
#
DISCID=cb08b70f
DTITLE=Various Artist - Country Jukebox Disc 2
DYEAR=1900
DGENRE=Country
TTITLE0=Hank Locklin - Send Me The Pillow You Dream On
TTITLE1=Dave Dudley - Six Days On The Road
TTITLE2=Lynn Anderson - I Never Promised You A Rose Garden
TTITLE3=Frankie Laine - Rawhide
TTITLE4=Patsy Cline - Walking After Midnight
TTITLE5=Kenny Rogers - Always Leaving, Always Gone
TTITLE6=Willie Nelson - I Feel Sorry For Him
TTITLE7=Dave Dudley - Last Days In The Mine
TTITLE8=Frankie Laine - Moonlight Gambler
TTITLE9=Waylon Jennings - Don't Think Twice It's Alright
TTITLE10=Patsy Cline - The Heart You Break May Be Your Own
TTITLE11=George Jones - Open Pit Mine
TTITLE12=Willie Nelson - If I Don't Understand
TTITLE13=George Jones - Please Don't Let My Woman Get To Me
TTITLE14=Patsy Cline - Stop, Look and Listen
EXTD=
EXTT0=
EXTT1=
EXTT2=
EXTT3=
EXTT4=
EXTT5=
EXTT6=
EXTT7=
EXTT8=
EXTT9=
EXTT10=
EXTT11=
EXTT12=
EXTT13=
EXTT14=
PLAYORDER=
